<?xml version="1.0" standalone="no"?><!DOCTYPE svg PUBLIC "-//W3C//DTD SVG 1.1//EN" "http://www.w3.org/Graphics/SVG/1.1/DTD/svg11.dtd"><svg t="1623841870008" class="icon" viewBox="0 0 1024 1024" version="1.1" xmlns="http://www.w3.org/2000/svg" p-id="1005" xmlns:xlink="http://www.w3.org/1999/xlink" width="200" height="200"><defs><style type="text/css"></style></defs><path d="M870.4 696.32c-56.32-61.44-133.12-99.84-215.04-115.2-25.6-5.12-48.64 5.12-64 25.6-28.16 35.84-53.76 71.68-81.92 104.96-23.04-28.16-56.32-69.12-84.48-102.4-15.36-20.48-40.96-28.16-66.56-23.04-171.52 38.4-291.84 171.52-307.2 337.92-2.56 17.92 5.12 35.84 15.36 48.64 12.8 12.8 28.16 20.48 48.64 20.48h519.68c17.92 0 33.28-15.36 33.28-33.28 0-17.92-15.36-33.28-33.28-33.28H117.76c5.12-66.56 33.28-130.56 79.36-179.2 46.08-48.64 104.96-81.92 174.08-97.28h2.56l107.52 130.56c7.68 7.68 17.92 12.8 28.16 12.8 10.24 0 20.48-5.12 28.16-15.36 33.28-46.08 69.12-89.6 102.4-135.68h2.56c69.12 12.8 130.56 46.08 179.2 94.72 48.64 51.2 79.36 117.76 84.48 186.88h-99.84c-15.36 0-30.72 15.36-30.72 30.72 0 17.92 12.8 33.28 30.72 33.28h102.4c17.92 0 35.84-7.68 48.64-20.48s17.92-30.72 15.36-48.64c-7.68-81.92-43.52-161.28-102.4-222.72zM512 568.32c148.48 0 268.8-120.32 268.8-268.8S660.48 30.72 512 30.72 243.2 153.6 243.2 299.52 363.52 568.32 512 568.32z m0-473.6c112.64 0 204.8 92.16 204.8 204.8s-92.16 204.8-204.8 204.8-204.8-92.16-204.8-204.8 92.16-204.8 204.8-204.8z" fill="#d4237a" p-id="1006"></path></svg>