<?xml version="1.0" standalone="no"?><!DOCTYPE svg PUBLIC "-//W3C//DTD SVG 1.1//EN" "http://www.w3.org/Graphics/SVG/1.1/DTD/svg11.dtd"><svg t="1623841789812" class="icon" viewBox="0 0 1024 1024" version="1.1" xmlns="http://www.w3.org/2000/svg" p-id="996" xmlns:xlink="http://www.w3.org/1999/xlink" width="200" height="200"><defs><style type="text/css"></style></defs><path d="M329.1 876.7c-40.4 0-73 32.5-73 73 0 40.3 32.5 73 73 73 40.4 0 73-32.5 73-73s-32.6-73-73-73z m511.2 0c-40.4 0-73 32.5-73 73 0 40.3 32.5 73 73 73s73-32.5 73-73c-0.1-40.5-32.8-73-73-73z m0 0" p-id="997" fill="#d4237a"></path><path d="M912.6 840.2H319.7c-52.6 0-99-41.6-105.2-94.8l-62-435.8L117.4 106C115.2 88 99 73.6 83.1 73.6H36.4C16.3 73.6 0 57.2 0 37.1 0 16.8 16.3 0.6 36.5 0.6H83c53.2 0 100.1 41.6 106.5 94.8l35.1 202.9 62.2 437.8c2 16.8 17.4 31.2 32.8 31.2h593c20.2 0 36.5 16.3 36.5 36.5 0 20.1-16.3 36.4-36.5 36.4z m0 0" p-id="998" fill="#d4237a"></path><path d="M365.3 694.1c-19 0-34.9-14.5-36.4-33.8-1.6-20 13.5-37.6 33.8-39.1L858 584.8c18.3-0.1 33.5-14.3 35.5-30.7l57.6-328.7c1.4-12.1-2-25.7-9.3-33.9-4.7-5.3-10.6-8-17.5-8H292c-20.2 0-36.5-16.3-36.5-36.5s16.5-36.9 36.5-36.9h632c27.8 0 53.6 11.6 72.2 32.5 21.4 24.1 30.9 57.9 26.9 93.3L965.6 565c-6.3 51.2-52.3 92.8-104.9 92.8l-492.5 36.4c-1-0.2-2-0.1-2.9-0.1z m0 0" p-id="999" fill="#d4237a"></path></svg>