<?xml version="1.0" standalone="no"?><!DOCTYPE svg PUBLIC "-//W3C//DTD SVG 1.1//EN" "http://www.w3.org/Graphics/SVG/1.1/DTD/svg11.dtd"><svg t="1623841890435" class="icon" viewBox="0 0 1024 1024" version="1.1" xmlns="http://www.w3.org/2000/svg" p-id="1441" xmlns:xlink="http://www.w3.org/1999/xlink" width="200" height="200"><defs><style type="text/css"></style></defs><path d="M896 554.666667a21.333333 21.333333 0 0 1 21.333333 21.333333v320a21.333333 21.333333 0 0 1-21.333333 21.333333H576a21.333333 21.333333 0 0 1-21.333333-21.333333V576a21.333333 21.333333 0 0 1 21.333333-21.333333h320z m-448 0a21.333333 21.333333 0 0 1 21.333333 21.333333v320a21.333333 21.333333 0 0 1-21.333333 21.333333H128a21.333333 21.333333 0 0 1-21.333333-21.333333V576a21.333333 21.333333 0 0 1 21.333333-21.333333h320z m405.333333 64H618.666667v234.666666h234.666666V618.666667z m-448 0H170.666667v234.666666h234.666666V618.666667z m42.666667-512a21.333333 21.333333 0 0 1 21.333333 21.333333v320a21.333333 21.333333 0 0 1-21.333333 21.333333H128a21.333333 21.333333 0 0 1-21.333333-21.333333V128a21.333333 21.333333 0 0 1 21.333333-21.333333h320z m448 0a21.333333 21.333333 0 0 1 21.333333 21.333333v320a21.333333 21.333333 0 0 1-21.333333 21.333333H576a21.333333 21.333333 0 0 1-21.333333-21.333333V128a21.333333 21.333333 0 0 1 21.333333-21.333333h320zM405.333333 170.666667H170.666667v234.666666h234.666666V170.666667z m448 0H618.666667v234.666666h234.666666V170.666667z" p-id="1442" fill="#000000"></path></svg>